<svg width="812" height="134" viewBox="0 0 812 134" fill="none" xmlns="http://www.w3.org/2000/svg">
<path d="M39.45 133.65C31.75 133.65 24.9 132.6 18.9 130.5C12.9 128.4 8.25 125.65 4.95 122.25C1.65 118.85 -1.11759e-07 115.3 -1.11759e-07 111.6C-1.11759e-07 108.7 1.05 105.9 3.15 103.2C5.25 100.5 8.35 98.1 12.45 96L18.9 99.75C8.9 103.65 3.9 108.35 3.9 113.85C3.9 116.95 5.5 119.9 8.7 122.7C12 125.5 16.35 127.75 21.75 129.45C27.15 131.25 32.9 132.15 39 132.15C44.6 132.15 49.7 131.55 54.3 130.35C58.9 129.15 62.55 127.45 65.25 125.25C67.95 123.15 69.3 120.8 69.3 118.2C69.3 115.5 68.1 113.25 65.7 111.45C63.3 109.75 60.3 108.35 56.7 107.25C53.1 106.25 48.2 105.1 42 103.8C34.6 102.2 28.6 100.7 24 99.3C19.5 97.8 15.65 95.75 12.45 93.15C9.25 90.45 7.65 87 7.65 82.8C7.65 79.9 8.55 77.05 10.35 74.25C12.15 71.45 14.65 69.05 17.85 67.05C15.65 62.55 14.55 57.55 14.55 52.05C14.55 47.15 15.5 42.55 17.4 38.25C19.3 33.95 22.1 30.5 25.8 27.9C29.5 25.3 33.95 24 39.15 24C45.15 24 50.3 25.75 54.6 29.25C55.8 27.65 57.5 26.4 59.7 25.5C61.9 24.5 64.25 24 66.75 24C70.75 24 74.15 25.25 76.95 27.75C79.85 30.15 81.3 33.75 81.3 38.55H75.15C74.35 34.15 72.85 30.95 70.65 28.95C68.55 26.85 66.1 25.8 63.3 25.8C61.7 25.8 60.1 26.15 58.5 26.85C57 27.45 55.8 28.3 54.9 29.4C58.1 32.2 60.55 35.7 62.25 39.9C63.95 44.1 64.8 48.55 64.8 53.25C64.8 58.15 63.85 62.8 61.95 67.2C60.15 71.5 57.35 75 53.55 77.7C49.85 80.3 45.35 81.6 40.05 81.6C35.55 81.6 31.55 80.6 28.05 78.6C24.55 76.5 21.7 73.7 19.5 70.2C17.8 72.2 16.95 74.5 16.95 77.1C16.95 80.4 18.3 83.1 21 85.2C23.8 87.3 27.2 88.95 31.2 90.15C35.3 91.35 40.75 92.7 47.55 94.2C54.55 95.7 60.1 97.05 64.2 98.25C68.3 99.45 71.75 101.15 74.55 103.35C77.45 105.55 78.9 108.4 78.9 111.9C78.9 115.8 77.1 119.4 73.5 122.7C70 126.1 65.2 128.75 59.1 130.65C53.1 132.65 46.55 133.65 39.45 133.65ZM25.5 54.75C26.1 59.45 27.25 63.75 28.95 67.65C30.75 71.45 32.8 74.5 35.1 76.8C37.5 79 39.9 80.1 42.3 80.1C45.9 80.1 48.8 78 51 73.8C53.3 69.6 54.45 64.35 54.45 58.05C54.45 55.65 54.3 53.25 54 50.85C52.9 43.75 50.7 37.75 47.4 32.85C44.2 27.95 40.75 25.5 37.05 25.5C33.45 25.5 30.55 27.6 28.35 31.8C26.15 36 25.05 41.25 25.05 47.55C25.05 49.95 25.2 52.35 25.5 54.75ZM112.822 105C112.422 105 112.072 104.9 111.772 104.7C111.572 104.4 111.472 104.05 111.472 103.65V93.15C110.872 96.75 108.872 99.65 105.472 101.85C102.172 103.95 98.3723 105 94.0723 105C88.8723 105 84.4223 103.35 80.7223 100.05C77.1223 96.65 75.3223 91.65 75.3223 85.05C75.3223 80.45 76.3723 76.85 78.4723 74.25C80.6723 71.55 83.2223 69.65 86.1223 68.55C89.0223 67.35 92.8723 66.2 97.6723 65.1C102.372 64.1 105.822 63.05 108.022 61.95C110.322 60.75 111.472 58.9 111.472 56.4C111.472 50.4 110.822 45 109.522 40.2C108.222 35.4 106.472 31.7 104.272 29.1C102.072 26.4 99.7723 25.05 97.3723 25.05C94.7723 25.05 92.2723 26.65 89.8723 29.85C87.5723 33.05 85.7223 37.9 84.3223 44.4L78.3223 36.15C80.8223 32.15 83.9223 29.15 87.6223 27.15C91.3223 25.05 95.2223 24 99.3223 24C103.322 24 107.072 24.95 110.572 26.85C114.072 28.75 116.872 31.5 118.972 35.1C121.172 38.6 122.272 42.7 122.272 47.4V101.4C122.272 101.7 122.322 101.9 122.422 102C122.622 102.2 122.872 102.3 123.172 102.3H126.772V105H112.822ZM86.1223 85.05C86.1223 91.05 87.2223 95.45 89.4223 98.25C91.7223 101.05 94.5723 102.45 97.9723 102.45C100.972 102.45 103.822 101.5 106.522 99.6C109.322 97.6 110.972 95.3 111.472 92.7V60.3C111.472 61 110.972 61.65 109.972 62.25C109.072 62.85 107.322 63.75 104.722 64.95C101.022 66.65 97.9223 68.25 95.4223 69.75C93.0223 71.25 90.8723 73.3 88.9723 75.9C87.0723 78.4 86.1223 81.45 86.1223 85.05ZM134.314 102.3V27.6C134.314 27 134.014 26.7 133.414 26.7H129.814V24H143.764C144.164 24 144.464 24.15 144.664 24.45C144.964 24.65 145.114 24.95 145.114 25.35V102.3H149.614V105H129.814V102.3H134.314ZM145.114 34.05C145.114 31.05 146.514 28.65 149.314 26.85C152.214 24.95 155.564 24 159.364 24C163.564 24 167.114 25.25 170.014 27.75C173.014 30.15 174.514 33.75 174.514 38.55H163.864C163.864 34.15 163.014 30.95 161.314 28.95C159.714 26.85 157.664 25.8 155.164 25.8C152.664 25.8 150.364 26.65 148.264 28.35C146.164 30.05 145.114 31.95 145.114 34.05ZM203.368 105C198.668 105 194.318 103.2 190.318 99.6C186.418 95.9 183.318 91 181.018 84.9C178.718 78.7 177.568 71.95 177.568 64.65C177.568 57.35 178.718 50.6 181.018 44.4C183.318 38.2 186.418 33.3 190.318 29.7C194.318 26 198.668 24.15 203.368 24.15C207.368 24.15 211.218 25.6 214.918 28.5V-7.15256e-06H230.218V2.55H225.568V102.3H230.218V105H214.918V100.8C211.218 103.6 207.368 105 203.368 105ZM188.368 66.75C189.268 73.55 190.768 79.7 192.868 85.2C194.968 90.7 197.318 95.05 199.918 98.25C202.618 101.45 205.318 103.05 208.018 103.05C210.718 103.05 213.018 101.4 214.918 98.1V47.1C212.918 40.7 210.468 35.65 207.568 31.95C204.668 28.15 201.768 26.25 198.868 26.25C195.368 26.25 192.568 28.8 190.468 33.9C188.368 38.9 187.318 45.35 187.318 53.25C187.318 56.85 187.668 61.35 188.368 66.75ZM259.032 105C254.332 105 249.982 103.2 245.982 99.6C242.082 95.9 238.982 91 236.682 84.9C234.382 78.7 233.232 71.95 233.232 64.65C233.232 57.35 234.382 50.6 236.682 44.4C238.982 38.2 242.082 33.3 245.982 29.7C249.982 26 254.332 24.15 259.032 24.15C264.232 24.15 268.982 26.45 273.282 31.05C277.682 35.55 280.882 41.55 282.882 49.05L245.232 73.35C247.032 82.05 249.632 89.15 253.032 94.65C256.532 100.15 260.132 102.9 263.832 102.9C266.332 102.9 268.532 101.4 270.432 98.4C272.332 95.3 273.632 91.2 274.332 86.1L278.232 91.65C275.732 95.95 272.832 99.25 269.532 101.55C266.232 103.85 262.732 105 259.032 105ZM272.682 52.5C270.782 44.7 268.182 38.4 264.882 33.6C261.582 28.7 258.282 26.25 254.982 26.25C251.582 26.25 248.832 28.7 246.732 33.6C244.732 38.5 243.732 45.1 243.732 53.4C243.732 58.6 244.182 64.2 245.082 70.2L272.682 52.5ZM319.87 102.3V38.7C319.87 34.3 319.02 31.1 317.32 29.1C315.72 27 313.67 25.95 311.17 25.95C308.97 25.95 306.87 26.65 304.87 28.05C302.87 29.45 301.67 31.1 301.27 33V102.3H305.62V105H285.82V102.3H290.47V26.7H285.82V24H301.27V32.7C301.77 30.1 303.37 28 306.07 26.4C308.87 24.8 312.02 24 315.52 24C319.72 24 323.27 25.25 326.17 27.75C329.17 30.25 330.67 33.9 330.67 38.7V102.3H335.17V105H315.37V102.3H319.87ZM380.895 29.7C384.895 26 389.245 24.15 393.945 24.15C398.645 24.15 402.945 26 406.845 29.7C410.845 33.3 413.995 38.2 416.295 44.4C418.595 50.6 419.745 57.35 419.745 64.65C419.745 71.95 418.595 78.7 416.295 84.9C413.995 91 410.845 95.9 406.845 99.6C402.945 103.2 398.645 105 393.945 105C389.245 105 384.895 103.2 380.895 99.6C376.995 95.9 373.895 91 371.595 84.9C369.295 78.7 368.145 71.95 368.145 64.65C368.145 57.35 369.295 50.6 371.595 44.4C373.895 38.2 376.995 33.3 380.895 29.7ZM378.045 53.4C378.045 57.6 378.345 62.05 378.945 66.75C379.845 73.45 381.295 79.55 383.295 85.05C385.395 90.55 387.745 94.85 390.345 97.95C393.045 101.05 395.695 102.6 398.295 102.6C401.795 102.6 404.595 100.1 406.695 95.1C408.795 90 409.845 83.5 409.845 75.6C409.845 71.4 409.545 67 408.945 62.4C408.045 55.7 406.545 49.65 404.445 44.25C402.345 38.75 399.945 34.45 397.245 31.35C394.645 28.15 392.045 26.55 389.445 26.55C385.945 26.55 383.145 29.05 381.045 34.05C379.045 38.95 378.045 45.4 378.045 53.4ZM427.433 102.3V26.7H422.783V24H427.433V13.95C427.433 9.34999 428.883 5.89999 431.783 3.59999C434.783 1.19999 438.383 -7.15256e-06 442.583 -7.15256e-06C446.383 -7.15256e-06 449.733 0.949993 452.633 2.84999C455.533 4.64999 456.983 7 456.983 9.9C456.983 7.8 455.933 5.95 453.833 4.35C451.733 2.65 449.433 1.8 446.933 1.8C444.433 1.8 442.333 2.84999 440.633 4.94999C439.033 6.95 438.233 10.1 438.233 14.4V24H442.733V26.7H438.233V102.3H442.733V105H422.783V102.3H427.433ZM503.808 105C499.108 105 494.758 103.2 490.758 99.6C486.858 95.9 483.758 91 481.458 84.9C479.158 78.7 478.008 71.95 478.008 64.65C478.008 57.35 479.158 50.6 481.458 44.4C483.758 38.2 486.858 33.3 490.758 29.7C494.758 26 499.108 24.15 503.808 24.15C507.808 24.15 511.658 25.6 515.358 28.5V-7.15256e-06H530.658V2.55H526.008V102.3H530.658V105H515.358V100.8C511.658 103.6 507.808 105 503.808 105ZM488.808 66.75C489.708 73.55 491.208 79.7 493.308 85.2C495.408 90.7 497.758 95.05 500.358 98.25C503.058 101.45 505.758 103.05 508.458 103.05C511.158 103.05 513.458 101.4 515.358 98.1V47.1C513.358 40.7 510.908 35.65 508.008 31.95C505.108 28.15 502.208 26.25 499.308 26.25C495.808 26.25 493.008 28.8 490.908 33.9C488.808 38.9 487.758 45.35 487.758 53.25C487.758 56.85 488.108 61.35 488.808 66.75ZM538.172 102.3V27.6C538.172 27 537.872 26.7 537.272 26.7H533.672V24H547.622C548.022 24 548.322 24.15 548.522 24.45C548.822 24.65 548.972 24.95 548.972 25.35V102.3H553.472V105H533.672V102.3H538.172ZM548.972 34.05C548.972 31.05 550.372 28.65 553.172 26.85C556.072 24.95 559.422 24 563.222 24C567.422 24 570.972 25.25 573.872 27.75C576.872 30.15 578.372 33.75 578.372 38.55H567.722C567.722 34.15 566.872 30.95 565.172 28.95C563.572 26.85 561.522 25.8 559.022 25.8C556.522 25.8 554.222 26.65 552.122 28.35C550.022 30.05 548.972 31.95 548.972 34.05ZM601.22 105C596.52 105 592.17 103.2 588.17 99.6C584.27 95.9 581.17 91 578.87 84.9C576.57 78.7 575.42 71.95 575.42 64.65C575.42 57.35 576.57 50.6 578.87 44.4C581.17 38.2 584.27 33.3 588.17 29.7C592.17 26 596.52 24.15 601.22 24.15C606.42 24.15 611.17 26.45 615.47 31.05C619.87 35.55 623.07 41.55 625.07 49.05L587.42 73.35C589.22 82.05 591.82 89.15 595.22 94.65C598.72 100.15 602.32 102.9 606.02 102.9C608.52 102.9 610.72 101.4 612.62 98.4C614.52 95.3 615.82 91.2 616.52 86.1L620.42 91.65C617.92 95.95 615.02 99.25 611.72 101.55C608.42 103.85 604.92 105 601.22 105ZM614.87 52.5C612.97 44.7 610.37 38.4 607.07 33.6C603.77 28.7 600.47 26.25 597.17 26.25C593.77 26.25 591.02 28.7 588.92 33.6C586.92 38.5 585.92 45.1 585.92 53.4C585.92 58.6 586.37 64.2 587.27 70.2L614.87 52.5ZM665.508 105C665.108 105 664.758 104.9 664.458 104.7C664.258 104.4 664.158 104.05 664.158 103.65V93.15C663.558 96.75 661.558 99.65 658.158 101.85C654.858 103.95 651.058 105 646.758 105C641.558 105 637.108 103.35 633.408 100.05C629.808 96.65 628.008 91.65 628.008 85.05C628.008 80.45 629.058 76.85 631.158 74.25C633.358 71.55 635.908 69.65 638.808 68.55C641.708 67.35 645.558 66.2 650.358 65.1C655.058 64.1 658.508 63.05 660.708 61.95C663.008 60.75 664.158 58.9 664.158 56.4C664.158 50.4 663.508 45 662.208 40.2C660.908 35.4 659.158 31.7 656.958 29.1C654.758 26.4 652.458 25.05 650.058 25.05C647.458 25.05 644.958 26.65 642.558 29.85C640.258 33.05 638.408 37.9 637.008 44.4L631.008 36.15C633.508 32.15 636.608 29.15 640.308 27.15C644.008 25.05 647.908 24 652.008 24C656.008 24 659.758 24.95 663.258 26.85C666.758 28.75 669.558 31.5 671.658 35.1C673.858 38.6 674.958 42.7 674.958 47.4V101.4C674.958 101.7 675.008 101.9 675.108 102C675.308 102.2 675.558 102.3 675.858 102.3H679.458V105H665.508ZM638.808 85.05C638.808 91.05 639.908 95.45 642.108 98.25C644.408 101.05 647.258 102.45 650.658 102.45C653.658 102.45 656.508 101.5 659.208 99.6C662.008 97.6 663.658 95.3 664.158 92.7V60.3C664.158 61 663.658 61.65 662.658 62.25C661.758 62.85 660.008 63.75 657.408 64.95C653.708 66.65 650.608 68.25 648.108 69.75C645.708 71.25 643.558 73.3 641.658 75.9C639.758 78.4 638.808 81.45 638.808 85.05ZM687.15 102.3V26.7H682.5V24H697.95V32.55C698.45 30.05 700.05 28.05 702.75 26.55C705.55 24.95 708.65 24.15 712.05 24.15C715.45 24.15 718.5 24.95 721.2 26.55C724 28.15 725.85 30.6 726.75 33.9C727.15 35.1 727.35 36.65 727.35 38.55V102.3H731.85V105H712.05V102.3H716.55V38.55C716.55 34.25 715.7 31.1 714 29.1C712.4 27 710.35 25.95 707.85 25.95C705.65 25.95 703.55 26.65 701.55 28.05C699.55 29.35 698.35 30.95 697.95 32.85V102.3H702.3V105H682.5V102.3H687.15ZM726.75 33.9C726.75 31 728.15 28.65 730.95 26.85C733.85 24.95 737.2 24 741 24C745.2 24 748.75 25.25 751.65 27.75C754.65 30.15 756.15 33.75 756.15 38.55V102.3H760.65V105H740.85V102.3H745.35V38.55C745.35 34.15 744.5 30.95 742.8 28.95C741.2 26.85 739.15 25.8 736.65 25.8C734.25 25.8 732 26.65 729.9 28.35C727.9 29.95 726.85 31.8 726.75 33.9ZM776.252 62.1C768.052 57 763.952 50.65 763.952 43.05C763.952 40.15 764.652 37.15 766.052 34.05C767.552 30.85 770.252 28.3 774.152 26.4C778.152 24.5 782.452 23.55 787.052 23.55C793.152 23.55 798.302 25.25 802.502 28.65C806.702 32.05 808.802 37.2 808.802 44.1H799.202C797.902 37.9 795.552 33.3 792.152 30.3C788.752 27.2 785.052 25.65 781.052 25.65C777.652 25.65 774.752 26.65 772.352 28.65C769.952 30.55 768.752 33.05 768.752 36.15C768.752 38.75 769.802 41.55 771.902 44.55C774.102 47.45 777.452 50.35 781.952 53.25L798.902 64.05C807.602 69.55 811.952 76.25 811.952 84.15C811.952 87.95 811.002 91.6 809.102 95.1C807.402 98.3 804.452 100.85 800.252 102.75C796.152 104.65 791.752 105.6 787.052 105.6C780.552 105.6 775.002 103.75 770.402 100.05C765.902 96.35 763.652 90.85 763.652 83.55H774.002C774.002 90.45 775.602 95.6 778.802 99C782.102 102.4 786.052 104.1 790.652 104.1C794.952 104.1 798.752 102.85 802.052 100.35C805.352 97.75 807.002 94.55 807.002 90.75C807.002 87.95 805.902 85.05 803.702 82.05C801.502 78.95 798.052 75.9 793.352 72.9L776.252 62.1Z" fill="#F5F2FF"/>
</svg>
